<svg xmlns="http://www.w3.org/2000/svg" aria-hidden="true" data-prefix="fas" data-icon="crosshairs" role="img" width="588.6666636202071" height="591.9999968210857" style=""><rect id="backgroundrect" width="100%" height="100%" x="0" y="0" fill="none" stroke="none"/><g class="currentLayer" style=""><title>Layer 1</title><path fill="#ffffff" fill-opacity="1" stroke="none" stroke-opacity="1" stroke-width="1" stroke-dasharray="none" stroke-linejoin="miter" stroke-linecap="butt" stroke-dashoffset="" fill-rule="nonzero" opacity="1" marker-start="" marker-mid="" marker-end="" d="M13.333333969116211,299.1666669845581 C13.333333969116211,142.53683273041446 140.20349971497257,15.666666984558105 296.8333339691162,15.666666984558105 C453.4631682232598,15.666666984558105 580.3333339691162,142.53683273041446 580.3333339691162,299.1666669845581 C580.3333339691162,455.79650123870175 453.4631682232598,582.6666669845581 296.8333339691162,582.6666669845581 C140.20349971497257,582.6666669845581 13.333333969116211,455.79650123870175 13.333333969116211,299.1666669845581 z" id="svg_2" class=""/><path fill="#6d6d6d" d="M543.333333492279,264.8333307504654 h-30.364 C499.05733349227904,171.15833075046538 425.00833349227906,97.1093307504654 331.33333349227905,83.1973307504654 V52.83333075046539 c0,-6.627 -5.373,-12 -12,-12 h-40 c-6.627,0 -12,5.373 -12,12 v30.364 C173.65833349227904,97.1093307504654 99.60933349227906,171.15833075046538 85.69733349227906,264.8333307504654 H55.33333349227905 c-6.627,0 -12,5.373 -12,12 v40 c0,6.627 5.373,12 12,12 h30.364 C99.60933349227906,422.5083307504654 173.65833349227904,496.5573307504654 267.33333349227905,510.46933075046536 V540.8333307504654 c0,6.627 5.373,12 12,12 h40 c6.627,0 12,-5.373 12,-12 v-30.364 C425.00833349227906,496.5573307504654 499.05733349227904,422.5083307504654 512.969333492279,328.8333307504654 H543.333333492279 c6.627,0 12,-5.373 12,-12 v-40 c0,-6.627 -5.373,-12 -12,-12 zM331.33333349227905,445.4673307504654 V404.8333307504654 c0,-6.627 -5.373,-12 -12,-12 h-40 c-6.627,0 -12,5.373 -12,12 v40.634 C209.15933349227905,433.0653307504654 163.11633349227907,387.0763307504654 150.69933349227904,328.8333307504654 H191.33333349227905 c6.627,0 12,-5.373 12,-12 v-40 c0,-6.627 -5.373,-12 -12,-12 h-40.634 C163.10133349227905,206.6593307504654 209.09033349227906,160.6163307504654 267.33333349227905,148.19933075046538 V188.8333307504654 c0,6.627 5.373,12 12,12 h40 c6.627,0 12,-5.373 12,-12 v-40.634 C389.50733349227903,160.6013307504654 435.55033349227904,206.5903307504654 447.96733349227907,264.8333307504654 H407.33333349227905 c-6.627,0 -12,5.373 -12,12 v40 c0,6.627 5.373,12 12,12 h40.634 C435.5653334922791,387.00733075046537 389.57633349227905,433.0503307504654 331.33333349227905,445.4673307504654 zM331.33333349227905,296.8333307504654 c0,17.673000000000002 -14.327,32 -32,32 s-32,-14.327 -32,-32 c0,-17.673000000000002 14.327,-32 32,-32 s32,14.327 32,32 z" id="svg_1" class="" fill-opacity="1"/><path fill="#6d6d6d" fill-opacity="1" stroke="none" stroke-opacity="1" stroke-width="1" stroke-dasharray="none" stroke-linejoin="miter" stroke-linecap="butt" stroke-dashoffset="" fill-rule="nonzero" opacity="1" marker-start="" marker-mid="" marker-end="" d="M678.5,189.1666717529297 C678.5,180.60313584132746 680.0662983425414,173.6666717529297 682,173.6666717529297 C683.9337016574586,173.6666717529297 685.5,180.60313584132746 685.5,189.1666717529297 C685.5,197.73020766453192 683.9337016574586,204.6666717529297 682,204.6666717529297 C680.0662983425414,204.6666717529297 678.5,197.73020766453192 678.5,189.1666717529297 z" id="svg_4" class=""/></g></svg>