<svg xmlns="http://www.w3.org/2000/svg" aria-hidden="true" data-prefix="fas" data-icon="map-marker-alt" role="img" width="384" height="512" style=""><rect id="backgroundrect" width="100%" height="100%" x="0" y="0" fill="none" stroke="none"/><g class="currentLayer" style=""><title>Layer 1</title><path fill="#009900" d="M172.268 501.67C26.97 291.031 0 269.413 0 192 0 85.961 85.961 0 192 0s192 85.961 192 192c0 77.413-26.97 99.031-172.268 309.67-9.535 13.774-29.93 13.773-39.464 0zM192 272c44.183 0 80-35.817 80-80s-35.817-80-80-80-80 35.817-80 80 35.817 80 80 80z" id="svg_1" class="selected" fill-opacity="1"/><path fill="#ffffff" fill-opacity="1" stroke="#ffffff" stroke-opacity="1" stroke-width="2" stroke-dasharray="none" stroke-linejoin="round" stroke-linecap="butt" stroke-dashoffset="" fill-rule="nonzero" opacity="1" marker-start="" marker-mid="" marker-end="" d="M111.0263158082962,191.89473688602448 C111.0263158082962,147.4195987644775 147.05117768674924,111.39473688602448 191.5263158082962,111.39473688602448 C236.00145392984317,111.39473688602448 272.0263158082962,147.4195987644775 272.0263158082962,191.89473688602448 C272.0263158082962,236.36987500757144 236.00145392984317,272.3947368860245 191.5263158082962,272.3947368860245 C147.05117768674924,272.3947368860245 111.0263158082962,236.36987500757144 111.0263158082962,191.89473688602448 z" id="svg_9" class=""/></g></svg>