<svg xmlns="http://www.w3.org/2000/svg" aria-hidden="true" data-prefix="fas" data-icon="subway" role="img" width="440" height="440" style=""><rect id="backgroundrect" width="100%" height="100%" x="0" y="0" fill="none" stroke="none"/><g class="currentLayer" style=""><title>Layer 1</title><path fill="#ffffff" fill-opacity="1" stroke="none" stroke-opacity="1" stroke-width="1" stroke-dasharray="none" stroke-linejoin="miter" stroke-linecap="butt" stroke-dashoffset="" fill-rule="nonzero" opacity="1" marker-start="" marker-mid="" marker-end="" d="M0,220.08824026537644 C0,98.49252703261419 98.49252771853742,-6.85923211563022e-7 220.08824095129967,-6.85923211563022e-7 C341.68395418406186,-6.85923211563022e-7 440.17648190259933,98.49252703261419 440.17648190259933,220.08824026537644 C440.17648190259933,341.6839534981387 341.68395418406186,440.1764812166761 220.08824095129967,440.1764812166761 C98.49252771853742,440.1764812166761 0,341.6839534981387 0,220.08824026537644 z" id="svg_4" class=""/><path fill="#008800" d="M342.3235457881592,123.69117184396555 v154.2353018632457 c0,31.21758658610967 -33.627803579504224,57.838238198717136 -70.95213353586747,57.838238198717136 l34.36776368682941,29.955990015400154 C308.9844139614389,368.5499557398824 307.16016127796684,374.3235373717398 303.0336285850516,374.3235373717398 H137.14286706081944 c-4.135263785627077,0 -5.943691363559002,-5.780208929984294 -2.705001660775062,-8.602835450411272 L168.80508339357928,335.7647119059284 C131.58770932293558,335.7647119059284 97.85294985771179,309.2278052423795 97.85294985771179,277.92647370721124 V123.69117184396555 C97.85294985771179,91.7481973537803 132.77732070491857,65.85293364524841 167.70169155212534,65.85293364524841 h104.77311254162032 c35.47006414169438,0 69.84874169441355,25.89526370853189 69.84874169441355,57.838238198717136 zM206.99160875523296,205.62867595881482 V138.15073139364483 c0,-7.985894242958288 -5.863474449269326,-14.459559549679284 -13.09663906770254,-14.459559549679284 H137.14286706081944 c-7.233164618433216,0 -13.09663906770254,6.473665306720997 -13.09663906770254,14.459559549679284 v67.47794456516999 c0,7.985894242958288 5.863474449269326,14.459559549679284 13.09663906770254,14.459559549679284 h56.75210262671101 c7.233164618433216,0 13.09663906770254,-6.473665306720997 13.09663906770254,-14.459559549679284 zm109.13865889752117,0 V138.15073139364483 c0,-7.985894242958288 -5.863474449269326,-14.459559549679284 -13.09663906770254,-14.459559549679284 H246.28152595834058 c-7.233164618433216,0 -13.09663906770254,6.473665306720997 -13.09663906770254,14.459559549679284 v67.47794456516999 c0,7.985894242958288 5.863474449269326,14.459559549679284 13.09663906770254,14.459559549679284 h56.75210262671101 c7.233164618433216,0 13.09663906770254,-6.473665306720997 13.09663906770254,-14.459559549679284 zm-26.19327813540508,33.738972282584996 c-14.466329236866432,0 -26.19327813540508,12.947330613441991 -26.19327813540508,28.919119099358568 s11.726948898538648,28.919119099358568 26.19327813540508,28.919119099358568 s26.19327813540508,-12.947330613441991 26.19327813540508,-28.919119099358568 s-11.726948898538648,-28.919119099358568 -26.19327813540508,-28.919119099358568 zm-139.6974833888271,0 c-14.466329236866432,0 -26.19327813540508,12.947330613441991 -26.19327813540508,28.919119099358568 s11.726948898538648,28.919119099358568 26.19327813540508,28.919119099358568 s26.19327813540508,-12.947330613441991 26.19327813540508,-28.919119099358568 s-11.726948898538648,-28.919119099358568 -26.19327813540508,-28.919119099358568 z" id="svg_1" class="" fill-opacity="1"/></g></svg>