<svg xmlns="http://www.w3.org/2000/svg" aria-hidden="true" data-prefix="fas" data-icon="bus" role="img" width="512" height="512" style=""><rect id="backgroundrect" width="100%" height="100%" x="0" y="0" fill="none" stroke="none"/><g class="currentLayer" style=""><title>Layer 1</title><path fill="#ffffff" fill-opacity="1" stroke="none" stroke-opacity="1" stroke-width="1" stroke-dasharray="none" stroke-linejoin="miter" stroke-linecap="butt" stroke-dashoffset="" fill-rule="nonzero" opacity="1" marker-start="" marker-mid="" marker-end="" d="M9.823536078064876,255.29412225526085 C9.823536078064876,119.74001289792227 119.62236465750914,9.941184318478008 255.1764740148477,9.941184318478008 C390.7305833721863,9.941184318478008 500.52941195163055,119.74001289792227 500.52941195163055,255.29412225526085 C500.52941195163055,390.8482316125994 390.7305833721863,500.6470601920437 255.1764740148477,500.6470601920437 C119.62236465750914,500.6470601920437 9.823536078064876,390.8482316125994 9.823536078064876,255.29412225526085 z" id="svg_4" class=""/><path fill="#ff4500" d="M404.7830922416929,171.82353265875147 h-5.150735437748124 V140.91912003226275 c0,-28.84411845138949 -63.86911942807674,-51.507354377481235 -144.22059225694747,-51.507354377481235 S111.1911722900498,112.07500158087325 111.1911722900498,140.91912003226275 v30.904412626488742 h-5.150735437748124 c-8.53090556877033,0 -15.452206313244371,6.9148623251768555 -15.452206313244371,15.452206313244371 v51.507354377481235 c0,8.53090556877033 6.921300744474041,15.452206313244371 15.452206313244371,15.452206313244371 h5.150735437748124 v103.01470875496247 c0,11.376686898126168 9.226254852866326,20.602941750992496 20.602941750992496,20.602941750992496 v20.602941750992496 c0,11.376686898126168 9.226254852866326,20.602941750992496 20.602941750992496,20.602941750992496 h20.602941750992496 c11.376686898126168,0 20.602941750992496,-9.226254852866326 20.602941750992496,-20.602941750992496 v-20.602941750992496 h123.61765050595497 v20.602941750992496 c0,11.376686898126168 9.226254852866326,20.602941750992496 20.602941750992496,20.602941750992496 h20.602941750992496 c11.376686898126168,0 20.602941750992496,-9.226254852866326 20.602941750992496,-20.602941750992496 v-20.602941750992496 h4.120588350198499 c10.301470875496248,0 16.482353400793997,-8.241176700396998 16.482353400793997,-16.482353400793997 V254.23529966272147 h5.150735437748124 c8.53090556877033,0 15.452206313244371,-6.921300744474041 15.452206313244371,-15.452206313244371 v-51.507354377481235 c0,-8.537343988067516 -6.921300744474041,-15.452206313244371 -15.452206313244371,-15.452206313244371 zM162.69852666753104,346.9485375421877 c-11.376686898126168,0 -20.602941750992496,-9.226254852866326 -20.602941750992496,-20.602941750992496 s9.226254852866326,-20.602941750992496 20.602941750992496,-20.602941750992496 s20.602941750992496,9.226254852866326 20.602941750992496,20.602941750992496 s-9.226254852866326,20.602941750992496 -20.602941750992496,20.602941750992496 zm10.301470875496248,-72.11029612847373 c-11.376686898126168,0 -20.602941750992496,-9.226254852866326 -20.602941750992496,-20.602941750992496 V171.82353265875147 c0,-11.376686898126168 9.226254852866326,-20.602941750992496 20.602941750992496,-20.602941750992496 h164.82353400793997 c11.376686898126168,0 20.602941750992496,9.226254852866326 20.602941750992496,20.602941750992496 v82.41176700396998 c0,11.376686898126168 -9.226254852866326,20.602941750992496 -20.602941750992496,20.602941750992496 H172.9999975430273 zm175.12500488343622,72.11029612847373 c-11.376686898126168,0 -20.602941750992496,-9.226254852866326 -20.602941750992496,-20.602941750992496 s9.226254852866326,-20.602941750992496 20.602941750992496,-20.602941750992496 s20.602941750992496,9.226254852866326 20.602941750992496,20.602941750992496 s-9.226254852866326,20.602941750992496 -20.602941750992496,20.602941750992496 z" id="svg_1" class="" fill-opacity="1"/><path fill="currentColor" fill-opacity="1" stroke="none" stroke-opacity="1" stroke-width="1" stroke-dasharray="none" stroke-linejoin="miter" stroke-linecap="butt" stroke-dashoffset="" fill-rule="nonzero" opacity="1" marker-start="" marker-mid="" marker-end="" d="M279,262 C279,262 279.4475138121547,262 280,262 C280.5524861878453,262 281,262 281,262 C281,262 280.5524861878453,262 280,262 C279.4475138121547,262 279,262 279,262 Z" id="svg_6"/></g></svg>