<svg xmlns="http://www.w3.org/2000/svg" aria-hidden="true" data-prefix="fas" data-icon="train" role="img" width="451" height="453"><rect id="backgroundrect" width="100%" height="100%" x="0" y="0" fill="none" stroke="none" class="" style=""/><g class="currentLayer" style=""><title>Layer 1</title><path fill="#ffffff" fill-opacity="1" stroke="none" stroke-opacity="1" stroke-width="1" stroke-dasharray="none" stroke-linejoin="miter" stroke-linecap="butt" stroke-dashoffset="" fill-rule="nonzero" opacity="1" marker-start="" marker-mid="" marker-end="" d="M0,226.5 C0,101.36187845303868 100.91436464088399,0 225.5,0 C350.085635359116,0 451,101.36187845303868 451,226.5 C451,351.6381215469613 350.085635359116,453 225.5,453 C100.91436464088399,453 0,351.6381215469613 0,226.5 z" id="svg_2" class=""/><path fill="#0000ff" d="M346.5588188617462,130.8382222367702 v153.05882700638722 c0,30.979465317718567 -33.30414734275517,57.39706012739521 -70.2692432461332,57.39706012739521 l34.03698558429703,29.727491943689767 C313.54056490378133,373.8292741721408 311.73387003543735,379.55881612214944 307.64705382412495,379.55881612214944 H143.35293477639078 c-4.095463270209637,0 -5.88648534430237,-5.736118696481558 -2.6789669346040075,-8.537214807907043 L174.71041298490275,341.29410937055263 C137.851243553016,341.29410937055263 104.44116973876953,314.9596207208521 104.44116973876953,283.8970492431574 V130.8382222367702 C104.44116973876953,99.13890212328724 139.0294053277662,73.441162109375 173.61764091676287,73.441162109375 h103.76470676699 c35.12867677007474,0 69.17647117799334,25.697740013912224 69.17647117799334,57.39706012739521 zm-25.9411766917475,81.31250184714321 V145.187487268619 c0,-7.924979499881495 -5.807040490683894,-14.349265031848802 -12.97058834587375,-14.349265031848802 H143.35293477639078 c-7.163547855189858,0 -12.97058834587375,6.424285531967308 -12.97058834587375,14.349265031848802 v66.96323681529441 c0,7.924979499881495 5.807040490683894,14.349265031848802 12.97058834587375,14.349265031848802 h164.29411904773417 c7.163547855189858,0 12.97058834587375,-6.424285531967308 12.97058834587375,-14.349265031848802 zm-95.11764786974084,38.264706751596805 c-16.71476484838264,0 -30.264706140372084,14.99019886993805 -30.264706140372084,33.481618407647204 s13.549941291989443,33.481618407647204 30.264706140372084,33.481618407647204 s30.264706140372084,-14.99019886993805 30.264706140372084,-33.481618407647204 s-13.549941291989443,-33.481618407647204 -30.264706140372084,-33.481618407647204 z" id="svg_1" class="selected" fill-opacity="1"/></g></svg>